%TF.GenerationSoftware,KiCad,Pcbnew,9.0.0*%
%TF.CreationDate,2025-03-31T20:31:44+01:00*%
%TF.ProjectId,TubeAdaptor,54756265-4164-4617-9074-6f722e6b6963,02a*%
%TF.SameCoordinates,Original*%
%TF.FileFunction,Legend,Bot*%
%TF.FilePolarity,Positive*%
%FSLAX46Y46*%
G04 Gerber Fmt 4.6, Leading zero omitted, Abs format (unit mm)*
G04 Created by KiCad (PCBNEW 9.0.0) date 2025-03-31 20:31:44*
%MOMM*%
%LPD*%
G01*
G04 APERTURE LIST*
%ADD10C,0.120000*%
%ADD11C,0.100000*%
%ADD12C,0.150000*%
G04 APERTURE END LIST*
D10*
X144932400Y-105410000D02*
X144932400Y-54610000D01*
X132630400Y-91188000D02*
X140630400Y-91188000D01*
X140630400Y-99188000D01*
X132630400Y-99188000D01*
X132630400Y-91188000D01*
G36*
X132630400Y-91188000D02*
G01*
X140630400Y-91188000D01*
X140630400Y-99188000D01*
X132630400Y-99188000D01*
X132630400Y-91188000D01*
G37*
X128676400Y-54610000D02*
X128676400Y-105410000D01*
D11*
X130403543Y-56244895D02*
X130860686Y-56244895D01*
X130632114Y-56244895D02*
X130632114Y-55444895D01*
X130632114Y-55444895D02*
X130708305Y-55559180D01*
X130708305Y-55559180D02*
X130784495Y-55635371D01*
X130784495Y-55635371D02*
X130860686Y-55673466D01*
X129489257Y-55521085D02*
X129451161Y-55482990D01*
X129451161Y-55482990D02*
X129374971Y-55444895D01*
X129374971Y-55444895D02*
X129184495Y-55444895D01*
X129184495Y-55444895D02*
X129108304Y-55482990D01*
X129108304Y-55482990D02*
X129070209Y-55521085D01*
X129070209Y-55521085D02*
X129032114Y-55597276D01*
X129032114Y-55597276D02*
X129032114Y-55673466D01*
X129032114Y-55673466D02*
X129070209Y-55787752D01*
X129070209Y-55787752D02*
X129527352Y-56244895D01*
X129527352Y-56244895D02*
X129032114Y-56244895D01*
X143865543Y-56244895D02*
X144322686Y-56244895D01*
X144094114Y-56244895D02*
X144094114Y-55444895D01*
X144094114Y-55444895D02*
X144170305Y-55559180D01*
X144170305Y-55559180D02*
X144246495Y-55635371D01*
X144246495Y-55635371D02*
X144322686Y-55673466D01*
X142951257Y-55521085D02*
X142913161Y-55482990D01*
X142913161Y-55482990D02*
X142836971Y-55444895D01*
X142836971Y-55444895D02*
X142646495Y-55444895D01*
X142646495Y-55444895D02*
X142570304Y-55482990D01*
X142570304Y-55482990D02*
X142532209Y-55521085D01*
X142532209Y-55521085D02*
X142494114Y-55597276D01*
X142494114Y-55597276D02*
X142494114Y-55673466D01*
X142494114Y-55673466D02*
X142532209Y-55787752D01*
X142532209Y-55787752D02*
X142989352Y-56244895D01*
X142989352Y-56244895D02*
X142494114Y-56244895D01*
D12*
X130401219Y-59742084D02*
X129925028Y-59408751D01*
X130401219Y-59170656D02*
X129401219Y-59170656D01*
X129401219Y-59170656D02*
X129401219Y-59551608D01*
X129401219Y-59551608D02*
X129448838Y-59646846D01*
X129448838Y-59646846D02*
X129496457Y-59694465D01*
X129496457Y-59694465D02*
X129591695Y-59742084D01*
X129591695Y-59742084D02*
X129734552Y-59742084D01*
X129734552Y-59742084D02*
X129829790Y-59694465D01*
X129829790Y-59694465D02*
X129877409Y-59646846D01*
X129877409Y-59646846D02*
X129925028Y-59551608D01*
X129925028Y-59551608D02*
X129925028Y-59170656D01*
X130401219Y-60599227D02*
X129877409Y-60599227D01*
X129877409Y-60599227D02*
X129782171Y-60551608D01*
X129782171Y-60551608D02*
X129734552Y-60456370D01*
X129734552Y-60456370D02*
X129734552Y-60265894D01*
X129734552Y-60265894D02*
X129782171Y-60170656D01*
X130353600Y-60599227D02*
X130401219Y-60503989D01*
X130401219Y-60503989D02*
X130401219Y-60265894D01*
X130401219Y-60265894D02*
X130353600Y-60170656D01*
X130353600Y-60170656D02*
X130258361Y-60123037D01*
X130258361Y-60123037D02*
X130163123Y-60123037D01*
X130163123Y-60123037D02*
X130067885Y-60170656D01*
X130067885Y-60170656D02*
X130020266Y-60265894D01*
X130020266Y-60265894D02*
X130020266Y-60503989D01*
X130020266Y-60503989D02*
X129972647Y-60599227D01*
X130353600Y-61027799D02*
X130401219Y-61123037D01*
X130401219Y-61123037D02*
X130401219Y-61313513D01*
X130401219Y-61313513D02*
X130353600Y-61408751D01*
X130353600Y-61408751D02*
X130258361Y-61456370D01*
X130258361Y-61456370D02*
X130210742Y-61456370D01*
X130210742Y-61456370D02*
X130115504Y-61408751D01*
X130115504Y-61408751D02*
X130067885Y-61313513D01*
X130067885Y-61313513D02*
X130067885Y-61170656D01*
X130067885Y-61170656D02*
X130020266Y-61075418D01*
X130020266Y-61075418D02*
X129925028Y-61027799D01*
X129925028Y-61027799D02*
X129877409Y-61027799D01*
X129877409Y-61027799D02*
X129782171Y-61075418D01*
X129782171Y-61075418D02*
X129734552Y-61170656D01*
X129734552Y-61170656D02*
X129734552Y-61313513D01*
X129734552Y-61313513D02*
X129782171Y-61408751D01*
X129734552Y-61884942D02*
X130734552Y-61884942D01*
X129782171Y-61884942D02*
X129734552Y-61980180D01*
X129734552Y-61980180D02*
X129734552Y-62170656D01*
X129734552Y-62170656D02*
X129782171Y-62265894D01*
X129782171Y-62265894D02*
X129829790Y-62313513D01*
X129829790Y-62313513D02*
X129925028Y-62361132D01*
X129925028Y-62361132D02*
X130210742Y-62361132D01*
X130210742Y-62361132D02*
X130305980Y-62313513D01*
X130305980Y-62313513D02*
X130353600Y-62265894D01*
X130353600Y-62265894D02*
X130401219Y-62170656D01*
X130401219Y-62170656D02*
X130401219Y-61980180D01*
X130401219Y-61980180D02*
X130353600Y-61884942D01*
X130401219Y-62789704D02*
X129401219Y-62789704D01*
X129782171Y-62789704D02*
X129734552Y-62884942D01*
X129734552Y-62884942D02*
X129734552Y-63075418D01*
X129734552Y-63075418D02*
X129782171Y-63170656D01*
X129782171Y-63170656D02*
X129829790Y-63218275D01*
X129829790Y-63218275D02*
X129925028Y-63265894D01*
X129925028Y-63265894D02*
X130210742Y-63265894D01*
X130210742Y-63265894D02*
X130305980Y-63218275D01*
X130305980Y-63218275D02*
X130353600Y-63170656D01*
X130353600Y-63170656D02*
X130401219Y-63075418D01*
X130401219Y-63075418D02*
X130401219Y-62884942D01*
X130401219Y-62884942D02*
X130353600Y-62789704D01*
X130353600Y-64075418D02*
X130401219Y-63980180D01*
X130401219Y-63980180D02*
X130401219Y-63789704D01*
X130401219Y-63789704D02*
X130353600Y-63694466D01*
X130353600Y-63694466D02*
X130258361Y-63646847D01*
X130258361Y-63646847D02*
X129877409Y-63646847D01*
X129877409Y-63646847D02*
X129782171Y-63694466D01*
X129782171Y-63694466D02*
X129734552Y-63789704D01*
X129734552Y-63789704D02*
X129734552Y-63980180D01*
X129734552Y-63980180D02*
X129782171Y-64075418D01*
X129782171Y-64075418D02*
X129877409Y-64123037D01*
X129877409Y-64123037D02*
X129972647Y-64123037D01*
X129972647Y-64123037D02*
X130067885Y-63646847D01*
X130401219Y-64551609D02*
X129734552Y-64551609D01*
X129925028Y-64551609D02*
X129829790Y-64599228D01*
X129829790Y-64599228D02*
X129782171Y-64646847D01*
X129782171Y-64646847D02*
X129734552Y-64742085D01*
X129734552Y-64742085D02*
X129734552Y-64837323D01*
X130401219Y-65170657D02*
X129734552Y-65170657D01*
X129925028Y-65170657D02*
X129829790Y-65218276D01*
X129829790Y-65218276D02*
X129782171Y-65265895D01*
X129782171Y-65265895D02*
X129734552Y-65361133D01*
X129734552Y-65361133D02*
X129734552Y-65456371D01*
X129734552Y-65694467D02*
X130401219Y-65932562D01*
X129734552Y-66170657D02*
X130401219Y-65932562D01*
X130401219Y-65932562D02*
X130639314Y-65837324D01*
X130639314Y-65837324D02*
X130686933Y-65789705D01*
X130686933Y-65789705D02*
X130734552Y-65694467D01*
X130401219Y-67313515D02*
X129401219Y-67313515D01*
X129401219Y-67313515D02*
X129401219Y-67694467D01*
X129401219Y-67694467D02*
X129448838Y-67789705D01*
X129448838Y-67789705D02*
X129496457Y-67837324D01*
X129496457Y-67837324D02*
X129591695Y-67884943D01*
X129591695Y-67884943D02*
X129734552Y-67884943D01*
X129734552Y-67884943D02*
X129829790Y-67837324D01*
X129829790Y-67837324D02*
X129877409Y-67789705D01*
X129877409Y-67789705D02*
X129925028Y-67694467D01*
X129925028Y-67694467D02*
X129925028Y-67313515D01*
X130401219Y-68313515D02*
X129401219Y-68313515D01*
X129448838Y-70075419D02*
X129401219Y-69980181D01*
X129401219Y-69980181D02*
X129401219Y-69837324D01*
X129401219Y-69837324D02*
X129448838Y-69694467D01*
X129448838Y-69694467D02*
X129544076Y-69599229D01*
X129544076Y-69599229D02*
X129639314Y-69551610D01*
X129639314Y-69551610D02*
X129829790Y-69503991D01*
X129829790Y-69503991D02*
X129972647Y-69503991D01*
X129972647Y-69503991D02*
X130163123Y-69551610D01*
X130163123Y-69551610D02*
X130258361Y-69599229D01*
X130258361Y-69599229D02*
X130353600Y-69694467D01*
X130353600Y-69694467D02*
X130401219Y-69837324D01*
X130401219Y-69837324D02*
X130401219Y-69932562D01*
X130401219Y-69932562D02*
X130353600Y-70075419D01*
X130353600Y-70075419D02*
X130305980Y-70123038D01*
X130305980Y-70123038D02*
X129972647Y-70123038D01*
X129972647Y-70123038D02*
X129972647Y-69932562D01*
X130401219Y-70551610D02*
X129401219Y-70551610D01*
X129401219Y-70551610D02*
X129401219Y-70932562D01*
X129401219Y-70932562D02*
X129448838Y-71027800D01*
X129448838Y-71027800D02*
X129496457Y-71075419D01*
X129496457Y-71075419D02*
X129591695Y-71123038D01*
X129591695Y-71123038D02*
X129734552Y-71123038D01*
X129734552Y-71123038D02*
X129829790Y-71075419D01*
X129829790Y-71075419D02*
X129877409Y-71027800D01*
X129877409Y-71027800D02*
X129925028Y-70932562D01*
X129925028Y-70932562D02*
X129925028Y-70551610D01*
X130401219Y-71551610D02*
X129401219Y-71551610D01*
X129401219Y-72218276D02*
X129401219Y-72408752D01*
X129401219Y-72408752D02*
X129448838Y-72503990D01*
X129448838Y-72503990D02*
X129544076Y-72599228D01*
X129544076Y-72599228D02*
X129734552Y-72646847D01*
X129734552Y-72646847D02*
X130067885Y-72646847D01*
X130067885Y-72646847D02*
X130258361Y-72599228D01*
X130258361Y-72599228D02*
X130353600Y-72503990D01*
X130353600Y-72503990D02*
X130401219Y-72408752D01*
X130401219Y-72408752D02*
X130401219Y-72218276D01*
X130401219Y-72218276D02*
X130353600Y-72123038D01*
X130353600Y-72123038D02*
X130258361Y-72027800D01*
X130258361Y-72027800D02*
X130067885Y-71980181D01*
X130067885Y-71980181D02*
X129734552Y-71980181D01*
X129734552Y-71980181D02*
X129544076Y-72027800D01*
X129544076Y-72027800D02*
X129448838Y-72123038D01*
X129448838Y-72123038D02*
X129401219Y-72218276D01*
X130305980Y-74408752D02*
X130353600Y-74361133D01*
X130353600Y-74361133D02*
X130401219Y-74218276D01*
X130401219Y-74218276D02*
X130401219Y-74123038D01*
X130401219Y-74123038D02*
X130353600Y-73980181D01*
X130353600Y-73980181D02*
X130258361Y-73884943D01*
X130258361Y-73884943D02*
X130163123Y-73837324D01*
X130163123Y-73837324D02*
X129972647Y-73789705D01*
X129972647Y-73789705D02*
X129829790Y-73789705D01*
X129829790Y-73789705D02*
X129639314Y-73837324D01*
X129639314Y-73837324D02*
X129544076Y-73884943D01*
X129544076Y-73884943D02*
X129448838Y-73980181D01*
X129448838Y-73980181D02*
X129401219Y-74123038D01*
X129401219Y-74123038D02*
X129401219Y-74218276D01*
X129401219Y-74218276D02*
X129448838Y-74361133D01*
X129448838Y-74361133D02*
X129496457Y-74408752D01*
X130401219Y-74980181D02*
X130353600Y-74884943D01*
X130353600Y-74884943D02*
X130305980Y-74837324D01*
X130305980Y-74837324D02*
X130210742Y-74789705D01*
X130210742Y-74789705D02*
X129925028Y-74789705D01*
X129925028Y-74789705D02*
X129829790Y-74837324D01*
X129829790Y-74837324D02*
X129782171Y-74884943D01*
X129782171Y-74884943D02*
X129734552Y-74980181D01*
X129734552Y-74980181D02*
X129734552Y-75123038D01*
X129734552Y-75123038D02*
X129782171Y-75218276D01*
X129782171Y-75218276D02*
X129829790Y-75265895D01*
X129829790Y-75265895D02*
X129925028Y-75313514D01*
X129925028Y-75313514D02*
X130210742Y-75313514D01*
X130210742Y-75313514D02*
X130305980Y-75265895D01*
X130305980Y-75265895D02*
X130353600Y-75218276D01*
X130353600Y-75218276D02*
X130401219Y-75123038D01*
X130401219Y-75123038D02*
X130401219Y-74980181D01*
X129734552Y-75742086D02*
X130401219Y-75742086D01*
X129829790Y-75742086D02*
X129782171Y-75789705D01*
X129782171Y-75789705D02*
X129734552Y-75884943D01*
X129734552Y-75884943D02*
X129734552Y-76027800D01*
X129734552Y-76027800D02*
X129782171Y-76123038D01*
X129782171Y-76123038D02*
X129877409Y-76170657D01*
X129877409Y-76170657D02*
X130401219Y-76170657D01*
X129734552Y-76646848D02*
X130401219Y-76646848D01*
X129829790Y-76646848D02*
X129782171Y-76694467D01*
X129782171Y-76694467D02*
X129734552Y-76789705D01*
X129734552Y-76789705D02*
X129734552Y-76932562D01*
X129734552Y-76932562D02*
X129782171Y-77027800D01*
X129782171Y-77027800D02*
X129877409Y-77075419D01*
X129877409Y-77075419D02*
X130401219Y-77075419D01*
X130353600Y-77932562D02*
X130401219Y-77837324D01*
X130401219Y-77837324D02*
X130401219Y-77646848D01*
X130401219Y-77646848D02*
X130353600Y-77551610D01*
X130353600Y-77551610D02*
X130258361Y-77503991D01*
X130258361Y-77503991D02*
X129877409Y-77503991D01*
X129877409Y-77503991D02*
X129782171Y-77551610D01*
X129782171Y-77551610D02*
X129734552Y-77646848D01*
X129734552Y-77646848D02*
X129734552Y-77837324D01*
X129734552Y-77837324D02*
X129782171Y-77932562D01*
X129782171Y-77932562D02*
X129877409Y-77980181D01*
X129877409Y-77980181D02*
X129972647Y-77980181D01*
X129972647Y-77980181D02*
X130067885Y-77503991D01*
X130353600Y-78837324D02*
X130401219Y-78742086D01*
X130401219Y-78742086D02*
X130401219Y-78551610D01*
X130401219Y-78551610D02*
X130353600Y-78456372D01*
X130353600Y-78456372D02*
X130305980Y-78408753D01*
X130305980Y-78408753D02*
X130210742Y-78361134D01*
X130210742Y-78361134D02*
X129925028Y-78361134D01*
X129925028Y-78361134D02*
X129829790Y-78408753D01*
X129829790Y-78408753D02*
X129782171Y-78456372D01*
X129782171Y-78456372D02*
X129734552Y-78551610D01*
X129734552Y-78551610D02*
X129734552Y-78742086D01*
X129734552Y-78742086D02*
X129782171Y-78837324D01*
X129734552Y-79123039D02*
X129734552Y-79503991D01*
X129401219Y-79265896D02*
X130258361Y-79265896D01*
X130258361Y-79265896D02*
X130353600Y-79313515D01*
X130353600Y-79313515D02*
X130401219Y-79408753D01*
X130401219Y-79408753D02*
X130401219Y-79503991D01*
X130401219Y-79980182D02*
X130353600Y-79884944D01*
X130353600Y-79884944D02*
X130305980Y-79837325D01*
X130305980Y-79837325D02*
X130210742Y-79789706D01*
X130210742Y-79789706D02*
X129925028Y-79789706D01*
X129925028Y-79789706D02*
X129829790Y-79837325D01*
X129829790Y-79837325D02*
X129782171Y-79884944D01*
X129782171Y-79884944D02*
X129734552Y-79980182D01*
X129734552Y-79980182D02*
X129734552Y-80123039D01*
X129734552Y-80123039D02*
X129782171Y-80218277D01*
X129782171Y-80218277D02*
X129829790Y-80265896D01*
X129829790Y-80265896D02*
X129925028Y-80313515D01*
X129925028Y-80313515D02*
X130210742Y-80313515D01*
X130210742Y-80313515D02*
X130305980Y-80265896D01*
X130305980Y-80265896D02*
X130353600Y-80218277D01*
X130353600Y-80218277D02*
X130401219Y-80123039D01*
X130401219Y-80123039D02*
X130401219Y-79980182D01*
X130401219Y-80742087D02*
X129734552Y-80742087D01*
X129925028Y-80742087D02*
X129829790Y-80789706D01*
X129829790Y-80789706D02*
X129782171Y-80837325D01*
X129782171Y-80837325D02*
X129734552Y-80932563D01*
X129734552Y-80932563D02*
X129734552Y-81027801D01*
D11*
X136321732Y-82709966D02*
X136388399Y-82676633D01*
X136388399Y-82676633D02*
X136488399Y-82676633D01*
X136488399Y-82676633D02*
X136588399Y-82709966D01*
X136588399Y-82709966D02*
X136655066Y-82776633D01*
X136655066Y-82776633D02*
X136688399Y-82843300D01*
X136688399Y-82843300D02*
X136721732Y-82976633D01*
X136721732Y-82976633D02*
X136721732Y-83076633D01*
X136721732Y-83076633D02*
X136688399Y-83209966D01*
X136688399Y-83209966D02*
X136655066Y-83276633D01*
X136655066Y-83276633D02*
X136588399Y-83343300D01*
X136588399Y-83343300D02*
X136488399Y-83376633D01*
X136488399Y-83376633D02*
X136421732Y-83376633D01*
X136421732Y-83376633D02*
X136321732Y-83343300D01*
X136321732Y-83343300D02*
X136288399Y-83309966D01*
X136288399Y-83309966D02*
X136288399Y-83076633D01*
X136288399Y-83076633D02*
X136421732Y-83076633D01*
X135988399Y-83376633D02*
X135988399Y-82676633D01*
X135988399Y-82676633D02*
X135588399Y-83376633D01*
X135588399Y-83376633D02*
X135588399Y-82676633D01*
X135255066Y-83376633D02*
X135255066Y-82676633D01*
X135255066Y-82676633D02*
X135088399Y-82676633D01*
X135088399Y-82676633D02*
X134988399Y-82709966D01*
X134988399Y-82709966D02*
X134921733Y-82776633D01*
X134921733Y-82776633D02*
X134888399Y-82843300D01*
X134888399Y-82843300D02*
X134855066Y-82976633D01*
X134855066Y-82976633D02*
X134855066Y-83076633D01*
X134855066Y-83076633D02*
X134888399Y-83209966D01*
X134888399Y-83209966D02*
X134921733Y-83276633D01*
X134921733Y-83276633D02*
X134988399Y-83343300D01*
X134988399Y-83343300D02*
X135088399Y-83376633D01*
X135088399Y-83376633D02*
X135255066Y-83376633D01*
X132676686Y-103704895D02*
X132181448Y-103704895D01*
X132181448Y-103704895D02*
X132448114Y-104009657D01*
X132448114Y-104009657D02*
X132333829Y-104009657D01*
X132333829Y-104009657D02*
X132257638Y-104047752D01*
X132257638Y-104047752D02*
X132219543Y-104085847D01*
X132219543Y-104085847D02*
X132181448Y-104162038D01*
X132181448Y-104162038D02*
X132181448Y-104352514D01*
X132181448Y-104352514D02*
X132219543Y-104428704D01*
X132219543Y-104428704D02*
X132257638Y-104466800D01*
X132257638Y-104466800D02*
X132333829Y-104504895D01*
X132333829Y-104504895D02*
X132562400Y-104504895D01*
X132562400Y-104504895D02*
X132638591Y-104466800D01*
X132638591Y-104466800D02*
X132676686Y-104428704D01*
X131800495Y-104504895D02*
X131648114Y-104504895D01*
X131648114Y-104504895D02*
X131571924Y-104466800D01*
X131571924Y-104466800D02*
X131533828Y-104428704D01*
X131533828Y-104428704D02*
X131457638Y-104314419D01*
X131457638Y-104314419D02*
X131419543Y-104162038D01*
X131419543Y-104162038D02*
X131419543Y-103857276D01*
X131419543Y-103857276D02*
X131457638Y-103781085D01*
X131457638Y-103781085D02*
X131495733Y-103742990D01*
X131495733Y-103742990D02*
X131571924Y-103704895D01*
X131571924Y-103704895D02*
X131724305Y-103704895D01*
X131724305Y-103704895D02*
X131800495Y-103742990D01*
X131800495Y-103742990D02*
X131838590Y-103781085D01*
X131838590Y-103781085D02*
X131876686Y-103857276D01*
X131876686Y-103857276D02*
X131876686Y-104047752D01*
X131876686Y-104047752D02*
X131838590Y-104123942D01*
X131838590Y-104123942D02*
X131800495Y-104162038D01*
X131800495Y-104162038D02*
X131724305Y-104200133D01*
X131724305Y-104200133D02*
X131571924Y-104200133D01*
X131571924Y-104200133D02*
X131495733Y-104162038D01*
X131495733Y-104162038D02*
X131457638Y-104123942D01*
X131457638Y-104123942D02*
X131419543Y-104047752D01*
X130124304Y-103971561D02*
X130124304Y-104504895D01*
X130314780Y-103666800D02*
X130505257Y-104238228D01*
X130505257Y-104238228D02*
X130010018Y-104238228D01*
X129552875Y-103704895D02*
X129476685Y-103704895D01*
X129476685Y-103704895D02*
X129400494Y-103742990D01*
X129400494Y-103742990D02*
X129362399Y-103781085D01*
X129362399Y-103781085D02*
X129324304Y-103857276D01*
X129324304Y-103857276D02*
X129286209Y-104009657D01*
X129286209Y-104009657D02*
X129286209Y-104200133D01*
X129286209Y-104200133D02*
X129324304Y-104352514D01*
X129324304Y-104352514D02*
X129362399Y-104428704D01*
X129362399Y-104428704D02*
X129400494Y-104466800D01*
X129400494Y-104466800D02*
X129476685Y-104504895D01*
X129476685Y-104504895D02*
X129552875Y-104504895D01*
X129552875Y-104504895D02*
X129629066Y-104466800D01*
X129629066Y-104466800D02*
X129667161Y-104428704D01*
X129667161Y-104428704D02*
X129705256Y-104352514D01*
X129705256Y-104352514D02*
X129743352Y-104200133D01*
X129743352Y-104200133D02*
X129743352Y-104009657D01*
X129743352Y-104009657D02*
X129705256Y-103857276D01*
X129705256Y-103857276D02*
X129667161Y-103781085D01*
X129667161Y-103781085D02*
X129629066Y-103742990D01*
X129629066Y-103742990D02*
X129552875Y-103704895D01*
X130952066Y-83376633D02*
X131185399Y-83043300D01*
X131352066Y-83376633D02*
X131352066Y-82676633D01*
X131352066Y-82676633D02*
X131085399Y-82676633D01*
X131085399Y-82676633D02*
X131018733Y-82709966D01*
X131018733Y-82709966D02*
X130985399Y-82743300D01*
X130985399Y-82743300D02*
X130952066Y-82809966D01*
X130952066Y-82809966D02*
X130952066Y-82909966D01*
X130952066Y-82909966D02*
X130985399Y-82976633D01*
X130985399Y-82976633D02*
X131018733Y-83009966D01*
X131018733Y-83009966D02*
X131085399Y-83043300D01*
X131085399Y-83043300D02*
X131352066Y-83043300D01*
X130718733Y-82676633D02*
X130252066Y-83376633D01*
X130252066Y-82676633D02*
X130718733Y-83376633D01*
X133781733Y-82676633D02*
X133381733Y-82676633D01*
X133581733Y-83376633D02*
X133581733Y-82676633D01*
X133215067Y-82676633D02*
X132748400Y-83376633D01*
X132748400Y-82676633D02*
X133215067Y-83376633D01*
X140498400Y-83236966D02*
X139965067Y-83236966D01*
X140231733Y-83503633D02*
X140231733Y-82970300D01*
X139298400Y-82803633D02*
X139631733Y-82803633D01*
X139631733Y-82803633D02*
X139665066Y-83136966D01*
X139665066Y-83136966D02*
X139631733Y-83103633D01*
X139631733Y-83103633D02*
X139565066Y-83070300D01*
X139565066Y-83070300D02*
X139398400Y-83070300D01*
X139398400Y-83070300D02*
X139331733Y-83103633D01*
X139331733Y-83103633D02*
X139298400Y-83136966D01*
X139298400Y-83136966D02*
X139265066Y-83203633D01*
X139265066Y-83203633D02*
X139265066Y-83370300D01*
X139265066Y-83370300D02*
X139298400Y-83436966D01*
X139298400Y-83436966D02*
X139331733Y-83470300D01*
X139331733Y-83470300D02*
X139398400Y-83503633D01*
X139398400Y-83503633D02*
X139565066Y-83503633D01*
X139565066Y-83503633D02*
X139631733Y-83470300D01*
X139631733Y-83470300D02*
X139665066Y-83436966D01*
X139065066Y-82803633D02*
X138831733Y-83503633D01*
X138831733Y-83503633D02*
X138598399Y-82803633D01*
X142671732Y-82836966D02*
X142738399Y-82803633D01*
X142738399Y-82803633D02*
X142838399Y-82803633D01*
X142838399Y-82803633D02*
X142938399Y-82836966D01*
X142938399Y-82836966D02*
X143005066Y-82903633D01*
X143005066Y-82903633D02*
X143038399Y-82970300D01*
X143038399Y-82970300D02*
X143071732Y-83103633D01*
X143071732Y-83103633D02*
X143071732Y-83203633D01*
X143071732Y-83203633D02*
X143038399Y-83336966D01*
X143038399Y-83336966D02*
X143005066Y-83403633D01*
X143005066Y-83403633D02*
X142938399Y-83470300D01*
X142938399Y-83470300D02*
X142838399Y-83503633D01*
X142838399Y-83503633D02*
X142771732Y-83503633D01*
X142771732Y-83503633D02*
X142671732Y-83470300D01*
X142671732Y-83470300D02*
X142638399Y-83436966D01*
X142638399Y-83436966D02*
X142638399Y-83203633D01*
X142638399Y-83203633D02*
X142771732Y-83203633D01*
X142338399Y-83503633D02*
X142338399Y-82803633D01*
X142338399Y-82803633D02*
X141938399Y-83503633D01*
X141938399Y-83503633D02*
X141938399Y-82803633D01*
X141605066Y-83503633D02*
X141605066Y-82803633D01*
X141605066Y-82803633D02*
X141438399Y-82803633D01*
X141438399Y-82803633D02*
X141338399Y-82836966D01*
X141338399Y-82836966D02*
X141271733Y-82903633D01*
X141271733Y-82903633D02*
X141238399Y-82970300D01*
X141238399Y-82970300D02*
X141205066Y-83103633D01*
X141205066Y-83103633D02*
X141205066Y-83203633D01*
X141205066Y-83203633D02*
X141238399Y-83336966D01*
X141238399Y-83336966D02*
X141271733Y-83403633D01*
X141271733Y-83403633D02*
X141338399Y-83470300D01*
X141338399Y-83470300D02*
X141438399Y-83503633D01*
X141438399Y-83503633D02*
X141605066Y-83503633D01*
X144360686Y-103704895D02*
X143865448Y-103704895D01*
X143865448Y-103704895D02*
X144132114Y-104009657D01*
X144132114Y-104009657D02*
X144017829Y-104009657D01*
X144017829Y-104009657D02*
X143941638Y-104047752D01*
X143941638Y-104047752D02*
X143903543Y-104085847D01*
X143903543Y-104085847D02*
X143865448Y-104162038D01*
X143865448Y-104162038D02*
X143865448Y-104352514D01*
X143865448Y-104352514D02*
X143903543Y-104428704D01*
X143903543Y-104428704D02*
X143941638Y-104466800D01*
X143941638Y-104466800D02*
X144017829Y-104504895D01*
X144017829Y-104504895D02*
X144246400Y-104504895D01*
X144246400Y-104504895D02*
X144322591Y-104466800D01*
X144322591Y-104466800D02*
X144360686Y-104428704D01*
X143484495Y-104504895D02*
X143332114Y-104504895D01*
X143332114Y-104504895D02*
X143255924Y-104466800D01*
X143255924Y-104466800D02*
X143217828Y-104428704D01*
X143217828Y-104428704D02*
X143141638Y-104314419D01*
X143141638Y-104314419D02*
X143103543Y-104162038D01*
X143103543Y-104162038D02*
X143103543Y-103857276D01*
X143103543Y-103857276D02*
X143141638Y-103781085D01*
X143141638Y-103781085D02*
X143179733Y-103742990D01*
X143179733Y-103742990D02*
X143255924Y-103704895D01*
X143255924Y-103704895D02*
X143408305Y-103704895D01*
X143408305Y-103704895D02*
X143484495Y-103742990D01*
X143484495Y-103742990D02*
X143522590Y-103781085D01*
X143522590Y-103781085D02*
X143560686Y-103857276D01*
X143560686Y-103857276D02*
X143560686Y-104047752D01*
X143560686Y-104047752D02*
X143522590Y-104123942D01*
X143522590Y-104123942D02*
X143484495Y-104162038D01*
X143484495Y-104162038D02*
X143408305Y-104200133D01*
X143408305Y-104200133D02*
X143255924Y-104200133D01*
X143255924Y-104200133D02*
X143179733Y-104162038D01*
X143179733Y-104162038D02*
X143141638Y-104123942D01*
X143141638Y-104123942D02*
X143103543Y-104047752D01*
X141808304Y-103971561D02*
X141808304Y-104504895D01*
X141998780Y-103666800D02*
X142189257Y-104238228D01*
X142189257Y-104238228D02*
X141694018Y-104238228D01*
X141236875Y-103704895D02*
X141160685Y-103704895D01*
X141160685Y-103704895D02*
X141084494Y-103742990D01*
X141084494Y-103742990D02*
X141046399Y-103781085D01*
X141046399Y-103781085D02*
X141008304Y-103857276D01*
X141008304Y-103857276D02*
X140970209Y-104009657D01*
X140970209Y-104009657D02*
X140970209Y-104200133D01*
X140970209Y-104200133D02*
X141008304Y-104352514D01*
X141008304Y-104352514D02*
X141046399Y-104428704D01*
X141046399Y-104428704D02*
X141084494Y-104466800D01*
X141084494Y-104466800D02*
X141160685Y-104504895D01*
X141160685Y-104504895D02*
X141236875Y-104504895D01*
X141236875Y-104504895D02*
X141313066Y-104466800D01*
X141313066Y-104466800D02*
X141351161Y-104428704D01*
X141351161Y-104428704D02*
X141389256Y-104352514D01*
X141389256Y-104352514D02*
X141427352Y-104200133D01*
X141427352Y-104200133D02*
X141427352Y-104009657D01*
X141427352Y-104009657D02*
X141389256Y-103857276D01*
X141389256Y-103857276D02*
X141351161Y-103781085D01*
X141351161Y-103781085D02*
X141313066Y-103742990D01*
X141313066Y-103742990D02*
X141236875Y-103704895D01*
D12*
X143847409Y-65731332D02*
X143895028Y-65874189D01*
X143895028Y-65874189D02*
X143942647Y-65921808D01*
X143942647Y-65921808D02*
X144037885Y-65969427D01*
X144037885Y-65969427D02*
X144180742Y-65969427D01*
X144180742Y-65969427D02*
X144275980Y-65921808D01*
X144275980Y-65921808D02*
X144323600Y-65874189D01*
X144323600Y-65874189D02*
X144371219Y-65778951D01*
X144371219Y-65778951D02*
X144371219Y-65397999D01*
X144371219Y-65397999D02*
X143371219Y-65397999D01*
X143371219Y-65397999D02*
X143371219Y-65731332D01*
X143371219Y-65731332D02*
X143418838Y-65826570D01*
X143418838Y-65826570D02*
X143466457Y-65874189D01*
X143466457Y-65874189D02*
X143561695Y-65921808D01*
X143561695Y-65921808D02*
X143656933Y-65921808D01*
X143656933Y-65921808D02*
X143752171Y-65874189D01*
X143752171Y-65874189D02*
X143799790Y-65826570D01*
X143799790Y-65826570D02*
X143847409Y-65731332D01*
X143847409Y-65731332D02*
X143847409Y-65397999D01*
X143847409Y-66731332D02*
X143895028Y-66874189D01*
X143895028Y-66874189D02*
X143942647Y-66921808D01*
X143942647Y-66921808D02*
X144037885Y-66969427D01*
X144037885Y-66969427D02*
X144180742Y-66969427D01*
X144180742Y-66969427D02*
X144275980Y-66921808D01*
X144275980Y-66921808D02*
X144323600Y-66874189D01*
X144323600Y-66874189D02*
X144371219Y-66778951D01*
X144371219Y-66778951D02*
X144371219Y-66397999D01*
X144371219Y-66397999D02*
X143371219Y-66397999D01*
X143371219Y-66397999D02*
X143371219Y-66731332D01*
X143371219Y-66731332D02*
X143418838Y-66826570D01*
X143418838Y-66826570D02*
X143466457Y-66874189D01*
X143466457Y-66874189D02*
X143561695Y-66921808D01*
X143561695Y-66921808D02*
X143656933Y-66921808D01*
X143656933Y-66921808D02*
X143752171Y-66874189D01*
X143752171Y-66874189D02*
X143799790Y-66826570D01*
X143799790Y-66826570D02*
X143847409Y-66731332D01*
X143847409Y-66731332D02*
X143847409Y-66397999D01*
X144275980Y-67969427D02*
X144323600Y-67921808D01*
X144323600Y-67921808D02*
X144371219Y-67778951D01*
X144371219Y-67778951D02*
X144371219Y-67683713D01*
X144371219Y-67683713D02*
X144323600Y-67540856D01*
X144323600Y-67540856D02*
X144228361Y-67445618D01*
X144228361Y-67445618D02*
X144133123Y-67397999D01*
X144133123Y-67397999D02*
X143942647Y-67350380D01*
X143942647Y-67350380D02*
X143799790Y-67350380D01*
X143799790Y-67350380D02*
X143609314Y-67397999D01*
X143609314Y-67397999D02*
X143514076Y-67445618D01*
X143514076Y-67445618D02*
X143418838Y-67540856D01*
X143418838Y-67540856D02*
X143371219Y-67683713D01*
X143371219Y-67683713D02*
X143371219Y-67778951D01*
X143371219Y-67778951D02*
X143418838Y-67921808D01*
X143418838Y-67921808D02*
X143466457Y-67969427D01*
X143371219Y-69017047D02*
X143371219Y-69588475D01*
X144371219Y-69302761D02*
X143371219Y-69302761D01*
X143704552Y-70350380D02*
X144371219Y-70350380D01*
X143704552Y-69921809D02*
X144228361Y-69921809D01*
X144228361Y-69921809D02*
X144323600Y-69969428D01*
X144323600Y-69969428D02*
X144371219Y-70064666D01*
X144371219Y-70064666D02*
X144371219Y-70207523D01*
X144371219Y-70207523D02*
X144323600Y-70302761D01*
X144323600Y-70302761D02*
X144275980Y-70350380D01*
X144371219Y-70826571D02*
X143371219Y-70826571D01*
X143752171Y-70826571D02*
X143704552Y-70921809D01*
X143704552Y-70921809D02*
X143704552Y-71112285D01*
X143704552Y-71112285D02*
X143752171Y-71207523D01*
X143752171Y-71207523D02*
X143799790Y-71255142D01*
X143799790Y-71255142D02*
X143895028Y-71302761D01*
X143895028Y-71302761D02*
X144180742Y-71302761D01*
X144180742Y-71302761D02*
X144275980Y-71255142D01*
X144275980Y-71255142D02*
X144323600Y-71207523D01*
X144323600Y-71207523D02*
X144371219Y-71112285D01*
X144371219Y-71112285D02*
X144371219Y-70921809D01*
X144371219Y-70921809D02*
X144323600Y-70826571D01*
X144323600Y-72112285D02*
X144371219Y-72017047D01*
X144371219Y-72017047D02*
X144371219Y-71826571D01*
X144371219Y-71826571D02*
X144323600Y-71731333D01*
X144323600Y-71731333D02*
X144228361Y-71683714D01*
X144228361Y-71683714D02*
X143847409Y-71683714D01*
X143847409Y-71683714D02*
X143752171Y-71731333D01*
X143752171Y-71731333D02*
X143704552Y-71826571D01*
X143704552Y-71826571D02*
X143704552Y-72017047D01*
X143704552Y-72017047D02*
X143752171Y-72112285D01*
X143752171Y-72112285D02*
X143847409Y-72159904D01*
X143847409Y-72159904D02*
X143942647Y-72159904D01*
X143942647Y-72159904D02*
X144037885Y-71683714D01*
X144275980Y-73921809D02*
X144323600Y-73874190D01*
X144323600Y-73874190D02*
X144371219Y-73731333D01*
X144371219Y-73731333D02*
X144371219Y-73636095D01*
X144371219Y-73636095D02*
X144323600Y-73493238D01*
X144323600Y-73493238D02*
X144228361Y-73398000D01*
X144228361Y-73398000D02*
X144133123Y-73350381D01*
X144133123Y-73350381D02*
X143942647Y-73302762D01*
X143942647Y-73302762D02*
X143799790Y-73302762D01*
X143799790Y-73302762D02*
X143609314Y-73350381D01*
X143609314Y-73350381D02*
X143514076Y-73398000D01*
X143514076Y-73398000D02*
X143418838Y-73493238D01*
X143418838Y-73493238D02*
X143371219Y-73636095D01*
X143371219Y-73636095D02*
X143371219Y-73731333D01*
X143371219Y-73731333D02*
X143418838Y-73874190D01*
X143418838Y-73874190D02*
X143466457Y-73921809D01*
X144371219Y-74493238D02*
X144323600Y-74398000D01*
X144323600Y-74398000D02*
X144275980Y-74350381D01*
X144275980Y-74350381D02*
X144180742Y-74302762D01*
X144180742Y-74302762D02*
X143895028Y-74302762D01*
X143895028Y-74302762D02*
X143799790Y-74350381D01*
X143799790Y-74350381D02*
X143752171Y-74398000D01*
X143752171Y-74398000D02*
X143704552Y-74493238D01*
X143704552Y-74493238D02*
X143704552Y-74636095D01*
X143704552Y-74636095D02*
X143752171Y-74731333D01*
X143752171Y-74731333D02*
X143799790Y-74778952D01*
X143799790Y-74778952D02*
X143895028Y-74826571D01*
X143895028Y-74826571D02*
X144180742Y-74826571D01*
X144180742Y-74826571D02*
X144275980Y-74778952D01*
X144275980Y-74778952D02*
X144323600Y-74731333D01*
X144323600Y-74731333D02*
X144371219Y-74636095D01*
X144371219Y-74636095D02*
X144371219Y-74493238D01*
X143704552Y-75255143D02*
X144371219Y-75255143D01*
X143799790Y-75255143D02*
X143752171Y-75302762D01*
X143752171Y-75302762D02*
X143704552Y-75398000D01*
X143704552Y-75398000D02*
X143704552Y-75540857D01*
X143704552Y-75540857D02*
X143752171Y-75636095D01*
X143752171Y-75636095D02*
X143847409Y-75683714D01*
X143847409Y-75683714D02*
X144371219Y-75683714D01*
X143704552Y-76159905D02*
X144371219Y-76159905D01*
X143799790Y-76159905D02*
X143752171Y-76207524D01*
X143752171Y-76207524D02*
X143704552Y-76302762D01*
X143704552Y-76302762D02*
X143704552Y-76445619D01*
X143704552Y-76445619D02*
X143752171Y-76540857D01*
X143752171Y-76540857D02*
X143847409Y-76588476D01*
X143847409Y-76588476D02*
X144371219Y-76588476D01*
X144323600Y-77445619D02*
X144371219Y-77350381D01*
X144371219Y-77350381D02*
X144371219Y-77159905D01*
X144371219Y-77159905D02*
X144323600Y-77064667D01*
X144323600Y-77064667D02*
X144228361Y-77017048D01*
X144228361Y-77017048D02*
X143847409Y-77017048D01*
X143847409Y-77017048D02*
X143752171Y-77064667D01*
X143752171Y-77064667D02*
X143704552Y-77159905D01*
X143704552Y-77159905D02*
X143704552Y-77350381D01*
X143704552Y-77350381D02*
X143752171Y-77445619D01*
X143752171Y-77445619D02*
X143847409Y-77493238D01*
X143847409Y-77493238D02*
X143942647Y-77493238D01*
X143942647Y-77493238D02*
X144037885Y-77017048D01*
X144323600Y-78350381D02*
X144371219Y-78255143D01*
X144371219Y-78255143D02*
X144371219Y-78064667D01*
X144371219Y-78064667D02*
X144323600Y-77969429D01*
X144323600Y-77969429D02*
X144275980Y-77921810D01*
X144275980Y-77921810D02*
X144180742Y-77874191D01*
X144180742Y-77874191D02*
X143895028Y-77874191D01*
X143895028Y-77874191D02*
X143799790Y-77921810D01*
X143799790Y-77921810D02*
X143752171Y-77969429D01*
X143752171Y-77969429D02*
X143704552Y-78064667D01*
X143704552Y-78064667D02*
X143704552Y-78255143D01*
X143704552Y-78255143D02*
X143752171Y-78350381D01*
X143704552Y-78636096D02*
X143704552Y-79017048D01*
X143371219Y-78778953D02*
X144228361Y-78778953D01*
X144228361Y-78778953D02*
X144323600Y-78826572D01*
X144323600Y-78826572D02*
X144371219Y-78921810D01*
X144371219Y-78921810D02*
X144371219Y-79017048D01*
X144371219Y-79493239D02*
X144323600Y-79398001D01*
X144323600Y-79398001D02*
X144275980Y-79350382D01*
X144275980Y-79350382D02*
X144180742Y-79302763D01*
X144180742Y-79302763D02*
X143895028Y-79302763D01*
X143895028Y-79302763D02*
X143799790Y-79350382D01*
X143799790Y-79350382D02*
X143752171Y-79398001D01*
X143752171Y-79398001D02*
X143704552Y-79493239D01*
X143704552Y-79493239D02*
X143704552Y-79636096D01*
X143704552Y-79636096D02*
X143752171Y-79731334D01*
X143752171Y-79731334D02*
X143799790Y-79778953D01*
X143799790Y-79778953D02*
X143895028Y-79826572D01*
X143895028Y-79826572D02*
X144180742Y-79826572D01*
X144180742Y-79826572D02*
X144275980Y-79778953D01*
X144275980Y-79778953D02*
X144323600Y-79731334D01*
X144323600Y-79731334D02*
X144371219Y-79636096D01*
X144371219Y-79636096D02*
X144371219Y-79493239D01*
X144371219Y-80255144D02*
X143704552Y-80255144D01*
X143895028Y-80255144D02*
X143799790Y-80302763D01*
X143799790Y-80302763D02*
X143752171Y-80350382D01*
X143752171Y-80350382D02*
X143704552Y-80445620D01*
X143704552Y-80445620D02*
X143704552Y-80540858D01*
M02*
