M48
; DRILL file {KiCad 9.0.0} date 2025-03-31T20:31:41+0100
; FORMAT={-:-/ absolute / metric / decimal}
; #@! TF.CreationDate,2025-03-31T20:31:41+01:00
; #@! TF.GenerationSoftware,Kicad,Pcbnew,9.0.0
; #@! TF.FileFunction,MixedPlating,1,2
FMAT,2
METRIC
; #@! TA.AperFunction,Plated,PTH,ViaDrill
T1C0.300
; #@! TA.AperFunction,Plated,PTH,ViaDrill
T2C0.400
; #@! TA.AperFunction,Plated,PTH,ComponentDrill
T3C1.000
%
G90
G05
T1
X125.679Y-64.084
X128.88Y-62.205
X128.988Y-63.61
X129.575Y-69.342
X129.629Y-78.74
X129.692Y-82.931
X131.343Y-75.438
X131.343Y-76.517
X132.105Y-65.507
X132.994Y-61.087
X133.883Y-82.042
X134.01Y-69.596
X134.645Y-81.28
X134.766Y-65.278
X134.772Y-72.39
X134.874Y-74.549
X135.331Y-64.21
X135.433Y-75.184
X138.074Y-74.574
X138.836Y-66.167
X140.995Y-62.946
X141.757Y-62.357
X142.545Y-74.574
X142.71Y-61.595
X143.535Y-64.186
T2
X130.2Y-80.518
X130.81Y-67.285
X135.015Y-60.971
X137.566Y-59.055
X137.566Y-70.866
X138.023Y-80.175
X143.662Y-69.85
T3
X124.435Y-55.88
X124.435Y-58.42
X124.435Y-60.96
X124.435Y-63.5
X124.435Y-66.04
X124.435Y-68.58
X124.435Y-71.12
X124.435Y-73.66
X124.435Y-76.2
X124.435Y-78.74
X124.435Y-81.28
X124.435Y-83.82
X124.435Y-86.36
X124.435Y-88.9
X124.435Y-91.44
X124.435Y-93.98
X124.435Y-96.52
X124.435Y-99.06
X124.435Y-101.6
X124.435Y-104.14
X126.975Y-55.88
X126.975Y-58.42
X126.975Y-60.96
X126.975Y-63.5
X126.975Y-66.04
X126.975Y-68.58
X126.975Y-71.12
X126.975Y-73.66
X126.975Y-76.2
X126.975Y-78.74
X126.975Y-81.28
X126.975Y-83.82
X126.975Y-86.36
X126.975Y-88.9
X126.975Y-91.44
X126.975Y-93.98
X126.975Y-96.52
X126.975Y-99.06
X126.975Y-101.6
X126.975Y-104.14
X130.708Y-84.963
X133.248Y-84.963
X135.788Y-84.963
X139.598Y-59.309
X139.598Y-84.963
X142.138Y-59.309
X142.138Y-84.963
X146.139Y-55.88
X146.139Y-58.42
X146.139Y-60.96
X146.139Y-63.5
X146.139Y-66.04
X146.139Y-68.58
X146.139Y-71.12
X146.139Y-73.66
X146.139Y-76.2
X146.139Y-78.74
X146.139Y-81.28
X146.139Y-83.82
X146.139Y-86.36
X146.139Y-88.9
X146.139Y-91.44
X146.139Y-93.98
X146.139Y-96.52
X146.139Y-99.06
X146.139Y-101.6
X146.139Y-104.14
X148.679Y-55.88
X148.679Y-58.42
X148.679Y-60.96
X148.679Y-63.5
X148.679Y-66.04
X148.679Y-68.58
X148.679Y-71.12
X148.679Y-73.66
X148.679Y-76.2
X148.679Y-78.74
X148.679Y-81.28
X148.679Y-83.82
X148.679Y-86.36
X148.679Y-88.9
X148.679Y-91.44
X148.679Y-93.98
X148.679Y-96.52
X148.679Y-99.06
X148.679Y-101.6
X148.679Y-104.14
M30
